<?xml version="1.0" standalone="no"?>
<!DOCTYPE svg PUBLIC "-//W3C//DTD SVG 20010904//EN"
 "http://www.w3.org/TR/2001/REC-SVG-20010904/DTD/svg10.dtd">
<svg version="1.0" xmlns="http://www.w3.org/2000/svg"
 width="346.000000pt" height="344.000000pt" viewBox="0 0 346.000000 344.000000"
 preserveAspectRatio="xMidYMid meet">

<g transform="translate(0.000000,344.000000) scale(0.100000,-0.100000)"
fill="#0ED145" stroke="none">
<path d="M2229 3280 c-149 -18 -299 -76 -416 -161 -74 -53 -1357 -1335 -1410
-1410 -112 -154 -164 -316 -164 -514 -1 -239 81 -436 251 -605 169 -170 366
-252 605 -251 198 0 360 52 514 163 74 54 1357 1337 1410 1411 304 420 173
1013 -279 1265 -148 83 -345 122 -511 102z m262 -140 c126 -27 226 -79 311
-158 148 -140 222 -279 250 -467 21 -146 -14 -325 -89 -454 -47 -83 -128 -172
-407 -451 l-276 -275 -272 270 c-150 149 -384 380 -520 515 -137 134 -248 250
-248 257 0 12 468 486 589 595 176 161 419 222 662 168z"/>
</g>
</svg>
